<svg xmlns="http://www.w3.org/2000/svg" viewBox="0 0 24 24" width="48" height="48" fill="currentColor">
  <path d="M12 2C6.475 2 2 6.475 2 12c0 4.418 2.865 8.166 6.84 9.489.5.09.682-.217.682-.484 0-.238-.01-1.022-.014-1.852-2.782.606-3.369-1.343-3.369-1.343-.455-1.156-1.11-1.464-1.11-1.464-.906-.619.07-.607.07-.607 1.002.07 1.53 1.028 1.53 1.028.892 1.529 2.341 1.087 2.91.831.09-.646.349-1.087.635-1.337-2.22-.253-4.555-1.11-4.555-4.943 0-1.09.39-1.982 1.03-2.68-.104-.253-.447-1.268.098-2.64 0 0 .841-.269 2.75 1.023A9.566 9.566 0 0 1 12 6.844a9.566 9.566 0 0 1 2.506.338c1.907-1.292 2.748-1.023 2.748-1.023.547 1.372.204 2.387.1 2.64.64.698 1.03 1.59 1.03 2.68 0 3.84-2.338 4.685-4.566 4.932.36.31.68.92.68 1.852 0 1.335-.012 2.412-.012 2.738 0 .27.18.578.688.48C19.138 20.162 22 16.418 22 12 22 6.475 17.525 2 12 2z"/>
</svg>
